# xmcd
# 
# Track frame offsets:
#     150
#     39895
#     91447
#     110826
#     126118
#     185262
#     207928
#     300302
#     350538
#     352958
# 
# Disc length: 4738
# 
# Revision: 4
# Processed by: cddbd v1.5.2PL0 Copyright (c) Steve Scherf et al.
# Submitted via: fre:ac v1.0.17
# 
DISCID=8712800a
DTITLE=Tangerine Dream - The Virgin Years 1974-1978 [CD3]
DYEAR=2011
DGENRE=Electronic Rock
TTITLE0=3 A.M. At The Border Of The Marsh From Okefenokee
TTITLE1=Invisible Limits
TTITLE2=Stratosfear [7'' Single Edit]
TTITLE3=The Big Sleep In Search Of Hades [7'' Single Edit]
TTITLE4=Bent Cold Sidewalk
TTITLE5=Rising Runner Missed By Endless Sender
TTITLE6=Madrigal Meridian
TTITLE7=Madrigal Meridian [Excerpt]
TTITLE8=Phaedra Radio Advert
TTITLE9=Rubycon Radio Advert
EXTD=
EXTT0=
EXTT1=
EXTT2=
EXTT3=
EXTT4=
EXTT5=
EXTT6=
EXTT7=
EXTT8=
EXTT9=
PLAYORDER=
